<?xml version="1.0" encoding="UTF-8"?>
<svg width="512" height="512" viewBox="0 0 512 512" fill="none" xmlns="http://www.w3.org/2000/svg">
  <defs>
    <linearGradient id="g" x1="120" y1="90" x2="420" y2="430" gradientUnits="userSpaceOnUse">
      <stop stop-color="#F2C45A"/>
      <stop offset="0.52" stop-color="#E6A94A"/>
      <stop offset="1" stop-color="#C6262E"/>
    </linearGradient>
    <radialGradient id="shine" cx="0" cy="0" r="1" gradientUnits="userSpaceOnUse" gradientTransform="translate(170 150) rotate(45) scale(210)">
      <stop stop-color="white" stop-opacity="0.35"/>
      <stop offset="1" stop-color="white" stop-opacity="0"/>
    </radialGradient>
    <filter id="shadow" x="-30" y="-30" width="572" height="572" filterUnits="userSpaceOnUse" color-interpolation-filters="sRGB">
      <feDropShadow dx="0" dy="18" stdDeviation="18" flood-color="#000000" flood-opacity="0.45"/>
    </filter>
  </defs>

  <rect x="44" y="44" width="424" height="424" rx="138" fill="#070B1B"/>
  <rect x="56" y="56" width="400" height="400" rx="130" fill="url(#g)" filter="url(#shadow)"/>
  <rect x="56" y="56" width="400" height="400" rx="130" fill="url(#shine)"/>

  <path
    d="M320.4 172.2c-16.1-17.7-41.8-27.2-71.9-27.2-44.9 0-77.7 22.1-77.7 55.8 0 25.8 18.5 41.8 58.4 51.6l26.5 6.6c26.1 6.6 35.4 13.3 35.4 23.9 0 14.6-15.9 24.2-40.4 24.2-24.6 0-43.6-8.3-55.9-23.5l-39.2 23.7c18.2 28.6 53.4 45.2 96.2 45.2 52.5 0 88.3-25.5 88.3-63.8 0-28.4-20.6-46.1-64.4-56.9l-25.5-6.2c-21.4-5.3-31.6-11.3-31.6-20.4 0-12.2 13.4-20 33.7-20 19.4 0 35.6 6.8 45.2 18.9l22.9-14.6Z"
    fill="rgba(255,255,255,0.95)"
  />
</svg>

